<?xml version="1.0" encoding="UTF-8"?>
<!DOCTYPE svg PUBLIC "-//W3C//DTD SVG 1.1//EN" "http://www.w3.org/Graphics/SVG/1.1/DTD/svg11.dtd">
<!-- Creator: CorelDRAW X7 -->
<svg xmlns="http://www.w3.org/2000/svg" xml:space="preserve" width="297mm" height="210mm" version="1.1" style="shape-rendering:geometricPrecision; text-rendering:geometricPrecision; image-rendering:optimizeQuality; fill-rule:evenodd; clip-rule:evenodd"
viewBox="0 0 29700 21000"
 xmlns:xlink="http://www.w3.org/1999/xlink">
 <defs>
  <style type="text/css">
   <![CDATA[
    .fil0 {fill:#332C2B}
    .fil4 {fill:#4AAEF1;fill-rule:nonzero}
    .fil3 {fill:#4AAFF1;fill-rule:nonzero}
    .fil2 {fill:#4AB0F1;fill-rule:nonzero}
    .fil1 {fill:#4AB1F1;fill-rule:nonzero}
    .fil11 {fill:#4BA9F0;fill-rule:nonzero}
    .fil10 {fill:#4BAAF0;fill-rule:nonzero}
    .fil9 {fill:#4BAAF1;fill-rule:nonzero}
    .fil8 {fill:#4BABF1;fill-rule:nonzero}
    .fil7 {fill:#4BACF1;fill-rule:nonzero}
    .fil6 {fill:#4BADF1;fill-rule:nonzero}
    .fil5 {fill:#4BAEF1;fill-rule:nonzero}
    .fil17 {fill:#4CA3F0;fill-rule:nonzero}
    .fil16 {fill:#4CA4F0;fill-rule:nonzero}
    .fil15 {fill:#4CA5F0;fill-rule:nonzero}
    .fil14 {fill:#4CA6F0;fill-rule:nonzero}
    .fil13 {fill:#4CA7F0;fill-rule:nonzero}
    .fil12 {fill:#4CA8F0;fill-rule:nonzero}
    .fil23 {fill:#4D9DF0;fill-rule:nonzero}
    .fil22 {fill:#4D9EF0;fill-rule:nonzero}
    .fil21 {fill:#4D9FF0;fill-rule:nonzero}
    .fil20 {fill:#4DA0F0;fill-rule:nonzero}
    .fil19 {fill:#4DA1F0;fill-rule:nonzero}
    .fil18 {fill:#4DA2F0;fill-rule:nonzero}
    .fil30 {fill:#4E97EF;fill-rule:nonzero}
    .fil29 {fill:#4E98EF;fill-rule:nonzero}
    .fil28 {fill:#4E99EF;fill-rule:nonzero}
    .fil27 {fill:#4E9AEF;fill-rule:nonzero}
    .fil26 {fill:#4E9BEF;fill-rule:nonzero}
    .fil25 {fill:#4E9CEF;fill-rule:nonzero}
    .fil24 {fill:#4E9DF0;fill-rule:nonzero}
    .fil35 {fill:#4F92EF;fill-rule:nonzero}
    .fil34 {fill:#4F93EF;fill-rule:nonzero}
    .fil33 {fill:#4F94EF;fill-rule:nonzero}
    .fil32 {fill:#4F95EF;fill-rule:nonzero}
    .fil31 {fill:#4F96EF;fill-rule:nonzero}
    .fil41 {fill:#508CEE;fill-rule:nonzero}
    .fil40 {fill:#508DEE;fill-rule:nonzero}
    .fil39 {fill:#508EEE;fill-rule:nonzero}
    .fil38 {fill:#508FEF;fill-rule:nonzero}
    .fil37 {fill:#5090EF;fill-rule:nonzero}
    .fil36 {fill:#5091EF;fill-rule:nonzero}
    .fil47 {fill:#5186EE;fill-rule:nonzero}
    .fil46 {fill:#5187EE;fill-rule:nonzero}
    .fil45 {fill:#5188EE;fill-rule:nonzero}
    .fil44 {fill:#5189EE;fill-rule:nonzero}
    .fil43 {fill:#518AEE;fill-rule:nonzero}
    .fil42 {fill:#518BEE;fill-rule:nonzero}
    .fil53 {fill:#5280ED;fill-rule:nonzero}
    .fil52 {fill:#5281EE;fill-rule:nonzero}
    .fil51 {fill:#5282EE;fill-rule:nonzero}
    .fil50 {fill:#5283EE;fill-rule:nonzero}
    .fil49 {fill:#5284EE;fill-rule:nonzero}
    .fil48 {fill:#5285EE;fill-rule:nonzero}
    .fil58 {fill:#537BED;fill-rule:nonzero}
    .fil57 {fill:#537CED;fill-rule:nonzero}
    .fil56 {fill:#537DED;fill-rule:nonzero}
    .fil55 {fill:#537EED;fill-rule:nonzero}
    .fil54 {fill:#537FED;fill-rule:nonzero}
    .fil64 {fill:#5475ED;fill-rule:nonzero}
    .fil63 {fill:#5476ED;fill-rule:nonzero}
    .fil62 {fill:#5477ED;fill-rule:nonzero}
    .fil61 {fill:#5478ED;fill-rule:nonzero}
    .fil60 {fill:#5479ED;fill-rule:nonzero}
    .fil59 {fill:#547AED;fill-rule:nonzero}
    .fil71 {fill:#556FEC;fill-rule:nonzero}
    .fil70 {fill:#5570EC;fill-rule:nonzero}
    .fil69 {fill:#5571EC;fill-rule:nonzero}
    .fil68 {fill:#5572EC;fill-rule:nonzero}
    .fil67 {fill:#5573ED;fill-rule:nonzero}
    .fil66 {fill:#5574ED;fill-rule:nonzero}
    .fil65 {fill:#5575ED;fill-rule:nonzero}
    .fil74 {fill:#566CEC;fill-rule:nonzero}
    .fil73 {fill:#566DEC;fill-rule:nonzero}
    .fil72 {fill:#566EEC;fill-rule:nonzero}
    .fil75 {fill:#586CEB;fill-rule:nonzero}
    .fil76 {fill:#596BEB;fill-rule:nonzero}
    .fil77 {fill:#5A6BEA;fill-rule:nonzero}
    .fil78 {fill:#5B6BEA;fill-rule:nonzero}
    .fil79 {fill:#5C6AE9;fill-rule:nonzero}
    .fil80 {fill:#5E6AE8;fill-rule:nonzero}
    .fil81 {fill:#5F6AE8;fill-rule:nonzero}
    .fil82 {fill:#6069E7;fill-rule:nonzero}
    .fil83 {fill:#6269E7;fill-rule:nonzero}
    .fil84 {fill:#6369E6;fill-rule:nonzero}
    .fil85 {fill:#6468E5;fill-rule:nonzero}
    .fil86 {fill:#6668E5;fill-rule:nonzero}
    .fil87 {fill:#6767E4;fill-rule:nonzero}
    .fil88 {fill:#6867E3;fill-rule:nonzero}
    .fil89 {fill:#6A67E3;fill-rule:nonzero}
    .fil90 {fill:#6B66E2;fill-rule:nonzero}
    .fil91 {fill:#6C66E1;fill-rule:nonzero}
    .fil92 {fill:#6E66E1;fill-rule:nonzero}
    .fil93 {fill:#6F65E0;fill-rule:nonzero}
    .fil94 {fill:#7165DF;fill-rule:nonzero}
    .fil95 {fill:#7264DF;fill-rule:nonzero}
    .fil96 {fill:#7464DE;fill-rule:nonzero}
    .fil97 {fill:#7564DD;fill-rule:nonzero}
    .fil98 {fill:#7763DD;fill-rule:nonzero}
    .fil99 {fill:#7863DC;fill-rule:nonzero}
    .fil100 {fill:#7A62DB;fill-rule:nonzero}
    .fil101 {fill:#7B62DA;fill-rule:nonzero}
    .fil102 {fill:#7D61DA;fill-rule:nonzero}
    .fil103 {fill:#7E61D9;fill-rule:nonzero}
    .fil104 {fill:#8061D8;fill-rule:nonzero}
    .fil105 {fill:#8260D7;fill-rule:nonzero}
    .fil106 {fill:#8360D7;fill-rule:nonzero}
    .fil107 {fill:#855FD6;fill-rule:nonzero}
    .fil108 {fill:#875FD5;fill-rule:nonzero}
    .fil109 {fill:#885ED4;fill-rule:nonzero}
    .fil110 {fill:#8A5ED3;fill-rule:nonzero}
    .fil111 {fill:#8C5DD3;fill-rule:nonzero}
    .fil112 {fill:#8D5DD2;fill-rule:nonzero}
    .fil113 {fill:#8F5CD1;fill-rule:nonzero}
    .fil114 {fill:#915CD0;fill-rule:nonzero}
    .fil115 {fill:#935CCF;fill-rule:nonzero}
    .fil116 {fill:#955BCE;fill-rule:nonzero}
    .fil117 {fill:#965BCE;fill-rule:nonzero}
    .fil118 {fill:#985ACD;fill-rule:nonzero}
    .fil119 {fill:#9A5ACC;fill-rule:nonzero}
    .fil120 {fill:#9C59CB;fill-rule:nonzero}
    .fil121 {fill:#9E59CA;fill-rule:nonzero}
    .fil122 {fill:#9F58C9;fill-rule:nonzero}
    .fil123 {fill:#A158C8;fill-rule:nonzero}
    .fil124 {fill:#A357C8;fill-rule:nonzero}
    .fil125 {fill:#A557C7;fill-rule:nonzero}
    .fil126 {fill:#A656C6;fill-rule:nonzero}
    .fil127 {fill:#A856C5;fill-rule:nonzero}
    .fil128 {fill:#AA55C4;fill-rule:nonzero}
    .fil129 {fill:#AB55C4;fill-rule:nonzero}
    .fil130 {fill:#AD54C3;fill-rule:nonzero}
    .fil131 {fill:#AE54C2;fill-rule:nonzero}
    .fil132 {fill:#B054C1;fill-rule:nonzero}
    .fil133 {fill:#B253C1;fill-rule:nonzero}
    .fil134 {fill:#B353C0;fill-rule:nonzero}
    .fil135 {fill:#B552BF;fill-rule:nonzero}
    .fil136 {fill:#B652BE;fill-rule:nonzero}
    .fil137 {fill:#B851BE;fill-rule:nonzero}
    .fil138 {fill:#B951BD;fill-rule:nonzero}
    .fil139 {fill:#BB51BC;fill-rule:nonzero}
    .fil140 {fill:#BC50BC;fill-rule:nonzero}
    .fil141 {fill:#BE50BB;fill-rule:nonzero}
    .fil142 {fill:#BF50BA;fill-rule:nonzero}
    .fil143 {fill:#C04FBA;fill-rule:nonzero}
    .fil144 {fill:#C24FB9;fill-rule:nonzero}
    .fil145 {fill:#C34EB8;fill-rule:nonzero}
    .fil146 {fill:#C54EB8;fill-rule:nonzero}
    .fil147 {fill:#C64EB7;fill-rule:nonzero}
    .fil148 {fill:#C74DB6;fill-rule:nonzero}
    .fil149 {fill:#C94DB6;fill-rule:nonzero}
    .fil150 {fill:#CA4DB5;fill-rule:nonzero}
    .fil151 {fill:#CB4CB5;fill-rule:nonzero}
    .fil152 {fill:#CD4CB4;fill-rule:nonzero}
    .fil153 {fill:#CE4BB3;fill-rule:nonzero}
    .fil154 {fill:#CF4BB3;fill-rule:nonzero}
    .fil155 {fill:#D04BB2;fill-rule:nonzero}
    .fil156 {fill:#D24AB2;fill-rule:nonzero}
    .fil157 {fill:#D34AB1;fill-rule:nonzero}
    .fil158 {fill:#D44AB0;fill-rule:nonzero}
    .fil159 {fill:#D549B0;fill-rule:nonzero}
    .fil161 {fill:#D749AE;fill-rule:nonzero}
    .fil160 {fill:#D749AF;fill-rule:nonzero}
    .fil163 {fill:#D84AAD;fill-rule:nonzero}
    .fil162 {fill:#D84AAE;fill-rule:nonzero}
    .fil164 {fill:#D84BAC;fill-rule:nonzero}
    .fil165 {fill:#D94BAB;fill-rule:nonzero}
    .fil166 {fill:#D94CAA;fill-rule:nonzero}
    .fil167 {fill:#DA4CA9;fill-rule:nonzero}
    .fil168 {fill:#DA4DA8;fill-rule:nonzero}
    .fil169 {fill:#DB4DA7;fill-rule:nonzero}
    .fil170 {fill:#DB4EA6;fill-rule:nonzero}
    .fil171 {fill:#DB4FA5;fill-rule:nonzero}
    .fil172 {fill:#DC4FA4;fill-rule:nonzero}
    .fil173 {fill:#DC50A3;fill-rule:nonzero}
    .fil174 {fill:#DD50A2;fill-rule:nonzero}
    .fil175 {fill:#DD51A0;fill-rule:nonzero}
    .fil176 {fill:#DE519F;fill-rule:nonzero}
    .fil177 {fill:#DE529E;fill-rule:nonzero}
    .fil179 {fill:#DF539C;fill-rule:nonzero}
    .fil178 {fill:#DF539D;fill-rule:nonzero}
    .fil181 {fill:#E0549A;fill-rule:nonzero}
    .fil180 {fill:#E0549B;fill-rule:nonzero}
    .fil182 {fill:#E05599;fill-rule:nonzero}
    .fil184 {fill:#E15696;fill-rule:nonzero}
    .fil183 {fill:#E15698;fill-rule:nonzero}
    .fil185 {fill:#E25795;fill-rule:nonzero}
    .fil186 {fill:#E25894;fill-rule:nonzero}
    .fil187 {fill:#E35893;fill-rule:nonzero}
    .fil188 {fill:#E45992;fill-rule:nonzero}
    .fil189 {fill:#E45A90;fill-rule:nonzero}
    .fil190 {fill:#E55A8F;fill-rule:nonzero}
    .fil191 {fill:#E55B8E;fill-rule:nonzero}
    .fil193 {fill:#E65C8B;fill-rule:nonzero}
    .fil192 {fill:#E65C8D;fill-rule:nonzero}
    .fil194 {fill:#E75D8A;fill-rule:nonzero}
    .fil195 {fill:#E75E89;fill-rule:nonzero}
    .fil197 {fill:#E85F86;fill-rule:nonzero}
    .fil196 {fill:#E85F87;fill-rule:nonzero}
    .fil198 {fill:#E96085;fill-rule:nonzero}
    .fil199 {fill:#EA6183;fill-rule:nonzero}
    .fil200 {fill:#EA6282;fill-rule:nonzero}
    .fil201 {fill:#EB6280;fill-rule:nonzero}
    .fil202 {fill:#EB637F;fill-rule:nonzero}
    .fil203 {fill:#EC647D;fill-rule:nonzero}
    .fil205 {fill:#ED657B;fill-rule:nonzero}
    .fil204 {fill:#ED657C;fill-rule:nonzero}
    .fil206 {fill:#EE6679;fill-rule:nonzero}
    .fil207 {fill:#EE6778;fill-rule:nonzero}
    .fil208 {fill:#EF6877;fill-rule:nonzero}
    .fil209 {fill:#F06875;fill-rule:nonzero}
    .fil210 {fill:#F06974;fill-rule:nonzero}
    .fil212 {fill:#F16A71;fill-rule:nonzero}
    .fil211 {fill:#F16A73;fill-rule:nonzero}
    .fil213 {fill:#F26B70;fill-rule:nonzero}
    .fil214 {fill:#F26C6F;fill-rule:nonzero}
    .fil215 {fill:#F36C6E;fill-rule:nonzero}
    .fil216 {fill:#F36D6C;fill-rule:nonzero}
    .fil218 {fill:#F46E6A;fill-rule:nonzero}
    .fil217 {fill:#F46E6B;fill-rule:nonzero}
    .fil219 {fill:#F56F69;fill-rule:nonzero}
    .fil220 {fill:#F57068;fill-rule:nonzero}
    .fil221 {fill:#F67067;fill-rule:nonzero}
    .fil222 {fill:#F67165;fill-rule:nonzero}
    .fil224 {fill:#F77263;fill-rule:nonzero}
    .fil223 {fill:#F77264;fill-rule:nonzero}
    .fil226 {fill:#F87361;fill-rule:nonzero}
    .fil225 {fill:#F87362;fill-rule:nonzero}
    .fil228 {fill:#F9745F;fill-rule:nonzero}
    .fil227 {fill:#F97460;fill-rule:nonzero}
    .fil229 {fill:#FA755E;fill-rule:nonzero}
    .fil231 {fill:#FA765C;fill-rule:nonzero}
    .fil230 {fill:#FA765D;fill-rule:nonzero}
    .fil233 {fill:#FB775A;fill-rule:nonzero}
    .fil232 {fill:#FB775B;fill-rule:nonzero}
    .fil235 {fill:#FC7858;fill-rule:nonzero}
    .fil234 {fill:#FC7859;fill-rule:nonzero}
    .fil237 {fill:#FD7956;fill-rule:nonzero}
    .fil236 {fill:#FD7957;fill-rule:nonzero}
    .fil238 {fill:#FD7A55;fill-rule:nonzero}
    .fil239 {fill:#FE7A54;fill-rule:nonzero}
    .fil240 {fill:#FE7B53;fill-rule:nonzero}
    .fil241 {fill:#FF7B52;fill-rule:nonzero}
    .fil242 {fill:#FF7C51;fill-rule:nonzero}
   ]]>
  </style>
    <clipPath id="id0" style="clip-rule:nonzero">
     <path d="M3894 10621c2003,-1415 3492,-890 4835,-418 668,236 1283,316 1887,355l25 0 32 0 6400 0 0 685 -6368 0c-759,-32 -1460,-130 -2207,-393 -1182,-416 -2494,-878 -4202,330l-402 -559z"/>
    </clipPath>
 </defs>
 <g id="Layer_x0020_2">
  <metadata id="CorelCorpID_0Corel-Layer"/>
  <path class="fil0" d="M5271 6903c-98,-47 -186,-70 -263,-70 -164,0 -299,59 -405,177 -114,127 -171,272 -171,437l0 2011 -527 0 0 -2011c0,-228 56,-437 168,-626 112,-190 267,-338 463,-443 147,-72 304,-108 472,-108 135,0 263,26 386,76 122,51 251,133 386,247l-509 310zm1036 1214c0,102 36,207 107,317 72,109 154,202 248,278 172,139 372,209 601,209 364,0 660,-182 889,-544l465 284c-159,266 -355,471 -588,614 -233,143 -488,215 -766,215 -208,0 -407,-41 -594,-123 -188,-82 -354,-197 -497,-345 -143,-148 -254,-318 -334,-512 -80,-194 -119,-399 -119,-614 0,-215 39,-421 119,-617 80,-196 191,-368 334,-515 139,-148 303,-262 493,-342 190,-80 390,-120 598,-120 208,0 408,40 598,120 189,80 354,194 493,342 302,320 453,691 453,1113 0,76 -6,156 -18,240l-2482 0zm956 -1296c-168,0 -325,38 -472,113 -147,76 -264,177 -352,301 -88,124 -132,256 -132,395l1912 0c0,-139 -44,-271 -132,-395 -88,-124 -205,-225 -352,-301 -147,-75 -305,-113 -472,-113zm4517 2637l0 -480c-131,156 -282,280 -454,373 -171,93 -353,139 -545,139 -213,0 -412,-40 -598,-120 -186,-80 -350,-194 -493,-342 -143,-143 -254,-313 -334,-509 -80,-196 -120,-402 -120,-617 0,-215 40,-420 120,-616 80,-197 191,-368 334,-516 143,-148 307,-261 493,-342 186,-80 385,-120 598,-120 196,0 381,42 554,127 174,84 322,202 445,354l0 -418 551 0 0 3087 -551 0zm-999 -2587c-135,0 -265,27 -389,79 -125,53 -232,126 -322,219 -90,92 -161,203 -212,332 -51,128 -76,262 -76,401 0,139 25,272 76,399 51,126 122,236 212,329 90,93 197,165 322,218 124,53 254,79 389,79 135,0 263,-26 386,-79 122,-53 229,-125 319,-218 89,-93 160,-203 211,-329 51,-127 77,-260 77,-399 0,-139 -26,-273 -77,-401 -51,-129 -122,-240 -211,-332 -90,-93 -197,-166 -319,-219 -123,-52 -251,-79 -386,-79zm2163 2587l0 -4206 490 0 0 4206 -490 0zm3610 0l0 -487c-131,161 -285,287 -463,380 -178,93 -363,139 -555,139 -216,0 -418,-41 -606,-123 -188,-82 -352,-200 -491,-351 -143,-152 -254,-326 -334,-522 -79,-196 -119,-404 -119,-623 0,-220 40,-427 119,-623 80,-197 191,-370 334,-522 139,-152 303,-269 491,-351 188,-83 390,-124 606,-124 213,0 406,45 580,133 173,89 319,211 438,367l0 -1493 539 0 0 4200 -539 0zm-1018 -2631c-134,0 -263,26 -386,79 -122,53 -228,128 -318,225 -90,97 -162,209 -215,338 -53,129 -79,263 -79,402 0,282 98,529 294,740 90,97 196,173 318,228 123,54 252,82 386,82 135,0 265,-28 390,-82 124,-55 232,-131 321,-228 196,-211 295,-458 295,-740 0,-139 -27,-273 -80,-402 -53,-129 -125,-241 -215,-338 -89,-97 -197,-172 -321,-225 -125,-53 -255,-79 -390,-79zm5694 4421l0 -974 0 -165 0 -2631c0,-172 -58,-318 -175,-436 -116,-118 -258,-177 -426,-177 -163,0 -306,59 -429,177 -118,114 -177,257 -177,430l0 2614 0 199 0 963 -558 0 0 -974 0 -188 0 -2614c0,-177 -58,-320 -172,-430 -122,-118 -267,-177 -435,-177 -163,0 -302,59 -417,177 -122,126 -183,276 -183,449l0 2612 0 176 0 969 -552 0 0 -980 0 -159 0 -3738 552 0 0 235c69,-89 160,-163 272,-222 113,-59 222,-88 328,-88 180,0 344,36 493,110 150,74 279,176 390,307 110,-131 241,-233 392,-307 151,-74 316,-110 496,-110 160,0 309,29 448,88 139,59 261,143 367,253 107,110 189,237 249,383 59,145 88,298 88,458l0 2608 0 171 0 991 -551 0zm2709 -4010c-13,-76 -41,-147 -80,-215 -79,-138 -231,-209 -460,-209 -122,0 -215,17 -282,45 -85,35 -150,82 -193,145 -43,63 -64,133 -64,209 0,93 -1,1132 64,1207 21,25 46,46 75,63 67,39 154,60 262,64 274,11 530,1 699,56 86,27 162,66 228,114 64,47 119,104 164,170 84,123 130,291 137,505 1,21 -10,872 -10,894 0,249 -92,464 -276,646 -90,88 -195,160 -316,215 -120,54 -246,82 -376,82l-92 0c-327,0 -590,-98 -791,-291 -163,-157 -266,-376 -306,-658l545 0c20,101 61,184 123,247 93,93 224,139 392,139 45,0 77,-5 98,-7 143,-11 255,-49 337,-123 82,-74 123,-165 123,-275 0,-20 10,-869 9,-887 -11,-120 -55,-200 -133,-240 -23,-12 -53,-23 -88,-32 -99,-25 -277,8 -467,8 -323,0 -567,-108 -741,-316 -30,-36 -56,-73 -80,-111 -84,-141 -95,-1260 -95,-1451 0,-55 3,-97 6,-127 33,-274 142,-484 328,-629 186,-146 432,-218 739,-218 224,0 422,48 588,151 120,75 222,181 306,317 84,134 135,303 160,506l-12 6 -521 0z"/>
  <g>
   <g style="clip-path:url(#id0)">
    <g>
     <polygon class="fil1" points="3894,9206 3920,9206 3920,11243 3894,11243 "/>
    </g>
    <g>
     <polygon id="1" class="fil2" points="3894,9206 3972,9206 3972,11243 3894,11243 "/>
    </g>
    <g>
     <polygon id="2" class="fil2" points="3946,9206 4023,9206 4023,11243 3946,11243 "/>
    </g>
    <g>
     <polygon id="3" class="fil3" points="3997,9206 4075,9206 4075,11243 3997,11243 "/>
    </g>
    <g>
     <polygon id="4" class="fil4" points="4049,9206 4126,9206 4126,11243 4049,11243 "/>
    </g>
    <g>
     <polygon id="5" class="fil5" points="4100,9206 4178,9206 4178,11243 4100,11243 "/>
    </g>
    <g>
     <polygon id="6" class="fil6" points="4152,9206 4229,9206 4229,11243 4152,11243 "/>
    </g>
    <g>
     <polygon id="7" class="fil7" points="4203,9206 4281,9206 4281,11243 4203,11243 "/>
    </g>
    <g>
     <polygon id="8" class="fil7" points="4255,9206 4332,9206 4332,11243 4255,11243 "/>
    </g>
    <g>
     <polygon id="9" class="fil8" points="4306,9206 4384,9206 4384,11243 4306,11243 "/>
    </g>
    <g>
     <polygon id="10" class="fil9" points="4358,9206 4435,9206 4435,11243 4358,11243 "/>
    </g>
    <g>
     <polygon id="11" class="fil10" points="4409,9206 4486,9206 4486,11243 4409,11243 "/>
    </g>
    <g>
     <polygon id="12" class="fil11" points="4461,9206 4538,9206 4538,11243 4461,11243 "/>
    </g>
    <g>
     <polygon id="13" class="fil12" points="4512,9206 4589,9206 4589,11243 4512,11243 "/>
    </g>
    <g>
     <polygon id="14" class="fil13" points="4564,9206 4641,9206 4641,11243 4564,11243 "/>
    </g>
    <g>
     <polygon id="15" class="fil13" points="4615,9206 4692,9206 4692,11243 4615,11243 "/>
    </g>
    <g>
     <polygon id="16" class="fil14" points="4667,9206 4744,9206 4744,11243 4667,11243 "/>
    </g>
    <g>
     <polygon id="17" class="fil15" points="4718,9206 4795,9206 4795,11243 4718,11243 "/>
    </g>
    <g>
     <polygon id="18" class="fil16" points="4770,9206 4847,9206 4847,11243 4770,11243 "/>
    </g>
    <g>
     <polygon id="19" class="fil16" points="4821,9206 4898,9206 4898,11243 4821,11243 "/>
    </g>
    <g>
     <polygon id="20" class="fil17" points="4873,9206 4950,9206 4950,11243 4873,11243 "/>
    </g>
    <g>
     <polygon id="21" class="fil18" points="4924,9206 5001,9206 5001,11243 4924,11243 "/>
    </g>
    <g>
     <polygon id="22" class="fil19" points="4975,9206 5053,9206 5053,11243 4975,11243 "/>
    </g>
    <g>
     <polygon id="23" class="fil19" points="5027,9206 5104,9206 5104,11243 5027,11243 "/>
    </g>
    <g>
     <polygon id="24" class="fil20" points="5078,9206 5156,9206 5156,11243 5078,11243 "/>
    </g>
    <g>
     <polygon id="25" class="fil21" points="5130,9206 5207,9206 5207,11243 5130,11243 "/>
    </g>
    <g>
     <polygon id="26" class="fil22" points="5181,9206 5259,9206 5259,11243 5181,11243 "/>
    </g>
    <g>
     <polygon id="27" class="fil23" points="5233,9206 5310,9206 5310,11243 5233,11243 "/>
    </g>
    <g>
     <polygon id="28" class="fil24" points="5284,9206 5362,9206 5362,11243 5284,11243 "/>
    </g>
    <g>
     <polygon id="29" class="fil25" points="5336,9206 5413,9206 5413,11243 5336,11243 "/>
    </g>
    <g>
     <polygon id="30" class="fil26" points="5387,9206 5465,9206 5465,11243 5387,11243 "/>
    </g>
    <g>
     <polygon id="31" class="fil27" points="5439,9206 5516,9206 5516,11243 5439,11243 "/>
    </g>
    <g>
     <polygon id="32" class="fil28" points="5490,9206 5567,9206 5567,11243 5490,11243 "/>
    </g>
    <g>
     <polygon id="33" class="fil29" points="5542,9206 5619,9206 5619,11243 5542,11243 "/>
    </g>
    <g>
     <polygon id="34" class="fil30" points="5593,9206 5670,9206 5670,11243 5593,11243 "/>
    </g>
    <g>
     <polygon id="35" class="fil31" points="5645,9206 5722,9206 5722,11243 5645,11243 "/>
    </g>
    <g>
     <polygon id="36" class="fil31" points="5696,9206 5773,9206 5773,11243 5696,11243 "/>
    </g>
    <g>
     <polygon id="37" class="fil32" points="5748,9206 5825,9206 5825,11243 5748,11243 "/>
    </g>
    <g>
     <polygon id="38" class="fil33" points="5799,9206 5876,9206 5876,11243 5799,11243 "/>
    </g>
    <g>
     <polygon id="39" class="fil34" points="5851,9206 5928,9206 5928,11243 5851,11243 "/>
    </g>
    <g>
     <polygon id="40" class="fil35" points="5902,9206 5979,9206 5979,11243 5902,11243 "/>
    </g>
    <g>
     <polygon id="41" class="fil36" points="5954,9206 6031,9206 6031,11243 5954,11243 "/>
    </g>
    <g>
     <polygon id="42" class="fil37" points="6005,9206 6082,9206 6082,11243 6005,11243 "/>
    </g>
    <g>
     <polygon id="43" class="fil38" points="6056,9206 6134,9206 6134,11243 6056,11243 "/>
    </g>
    <g>
     <polygon id="44" class="fil39" points="6108,9206 6185,9206 6185,11243 6108,11243 "/>
    </g>
    <g>
     <polygon id="45" class="fil40" points="6159,9206 6237,9206 6237,11243 6159,11243 "/>
    </g>
    <g>
     <polygon id="46" class="fil41" points="6211,9206 6288,9206 6288,11243 6211,11243 "/>
    </g>
    <g>
     <polygon id="47" class="fil42" points="6262,9206 6340,9206 6340,11243 6262,11243 "/>
    </g>
    <g>
     <polygon id="48" class="fil43" points="6314,9206 6391,9206 6391,11243 6314,11243 "/>
    </g>
    <g>
     <polygon id="49" class="fil44" points="6365,9206 6443,9206 6443,11243 6365,11243 "/>
    </g>
    <g>
     <polygon id="50" class="fil45" points="6417,9206 6494,9206 6494,11243 6417,11243 "/>
    </g>
    <g>
     <polygon id="51" class="fil46" points="6468,9206 6546,9206 6546,11243 6468,11243 "/>
    </g>
    <g>
     <polygon id="52" class="fil47" points="6520,9206 6597,9206 6597,11243 6520,11243 "/>
    </g>
    <g>
     <polygon id="53" class="fil48" points="6571,9206 6648,9206 6648,11243 6571,11243 "/>
    </g>
    <g>
     <polygon id="54" class="fil48" points="6623,9206 6700,9206 6700,11243 6623,11243 "/>
    </g>
    <g>
     <polygon id="55" class="fil49" points="6674,9206 6751,9206 6751,11243 6674,11243 "/>
    </g>
    <g>
     <polygon id="56" class="fil50" points="6726,9206 6803,9206 6803,11243 6726,11243 "/>
    </g>
    <g>
     <polygon id="57" class="fil51" points="6777,9206 6854,9206 6854,11243 6777,11243 "/>
    </g>
    <g>
     <polygon id="58" class="fil52" points="6829,9206 6906,9206 6906,11243 6829,11243 "/>
    </g>
    <g>
     <polygon id="59" class="fil53" points="6880,9206 6957,9206 6957,11243 6880,11243 "/>
    </g>
    <g>
     <polygon id="60" class="fil54" points="6932,9206 7009,9206 7009,11243 6932,11243 "/>
    </g>
    <g>
     <polygon id="61" class="fil54" points="6983,9206 7060,9206 7060,11243 6983,11243 "/>
    </g>
    <g>
     <polygon id="62" class="fil55" points="7035,9206 7112,9206 7112,11243 7035,11243 "/>
    </g>
    <g>
     <polygon id="63" class="fil56" points="7086,9206 7163,9206 7163,11243 7086,11243 "/>
    </g>
    <g>
     <polygon id="64" class="fil57" points="7138,9206 7215,9206 7215,11243 7138,11243 "/>
    </g>
    <g>
     <polygon id="65" class="fil58" points="7189,9206 7266,9206 7266,11243 7189,11243 "/>
    </g>
    <g>
     <polygon id="66" class="fil58" points="7240,9206 7318,9206 7318,11243 7240,11243 "/>
    </g>
    <g>
     <polygon id="67" class="fil59" points="7292,9206 7369,9206 7369,11243 7292,11243 "/>
    </g>
    <g>
     <polygon id="68" class="fil60" points="7343,9206 7421,9206 7421,11243 7343,11243 "/>
    </g>
    <g>
     <polygon id="69" class="fil61" points="7395,9206 7472,9206 7472,11243 7395,11243 "/>
    </g>
    <g>
     <polygon id="70" class="fil61" points="7446,9206 7524,9206 7524,11243 7446,11243 "/>
    </g>
    <g>
     <polygon id="71" class="fil62" points="7498,9206 7575,9206 7575,11243 7498,11243 "/>
    </g>
    <g>
     <polygon id="72" class="fil63" points="7549,9206 7627,9206 7627,11243 7549,11243 "/>
    </g>
    <g>
     <polygon id="73" class="fil64" points="7601,9206 7678,9206 7678,11243 7601,11243 "/>
    </g>
    <g>
     <polygon id="74" class="fil65" points="7652,9206 7729,9206 7729,11243 7652,11243 "/>
    </g>
    <g>
     <polygon id="75" class="fil66" points="7704,9206 7781,9206 7781,11243 7704,11243 "/>
    </g>
    <g>
     <polygon id="76" class="fil67" points="7755,9206 7832,9206 7832,11243 7755,11243 "/>
    </g>
    <g>
     <polygon id="77" class="fil68" points="7807,9206 7884,9206 7884,11243 7807,11243 "/>
    </g>
    <g>
     <polygon id="78" class="fil68" points="7858,9206 7935,9206 7935,11243 7858,11243 "/>
    </g>
    <g>
     <polygon id="79" class="fil69" points="7910,9206 7987,9206 7987,11243 7910,11243 "/>
    </g>
    <g>
     <polygon id="80" class="fil70" points="7961,9206 8038,9206 8038,11243 7961,11243 "/>
    </g>
    <g>
     <polygon id="81" class="fil70" points="8013,9206 8090,9206 8090,11243 8013,11243 "/>
    </g>
    <g>
     <polygon id="82" class="fil71" points="8064,9206 8141,9206 8141,11243 8064,11243 "/>
    </g>
    <g>
     <polygon id="83" class="fil72" points="8116,9206 8193,9206 8193,11243 8116,11243 "/>
    </g>
    <g>
     <polygon id="84" class="fil72" points="8167,9206 8244,9206 8244,11243 8167,11243 "/>
    </g>
    <g>
     <polygon id="85" class="fil73" points="8219,9206 8296,9206 8296,11243 8219,11243 "/>
    </g>
    <g>
     <polygon id="86" class="fil74" points="8270,9206 8347,9206 8347,11243 8270,11243 "/>
    </g>
    <g>
     <polygon id="87" class="fil74" points="8321,9206 8399,9206 8399,11243 8321,11243 "/>
    </g>
    <g>
     <polygon id="88" class="fil75" points="8373,9206 8450,9206 8450,11243 8373,11243 "/>
    </g>
    <g>
     <polygon id="89" class="fil76" points="8424,9206 8502,9206 8502,11243 8424,11243 "/>
    </g>
    <g>
     <polygon id="90" class="fil77" points="8476,9206 8553,9206 8553,11243 8476,11243 "/>
    </g>
    <g>
     <polygon id="91" class="fil78" points="8527,9206 8605,9206 8605,11243 8527,11243 "/>
    </g>
    <g>
     <polygon id="92" class="fil79" points="8579,9206 8656,9206 8656,11243 8579,11243 "/>
    </g>
    <g>
     <polygon id="93" class="fil80" points="8630,9206 8708,9206 8708,11243 8630,11243 "/>
    </g>
    <g>
     <polygon id="94" class="fil81" points="8682,9206 8759,9206 8759,11243 8682,11243 "/>
    </g>
    <g>
     <polygon id="95" class="fil82" points="8733,9206 8811,9206 8811,11243 8733,11243 "/>
    </g>
    <g>
     <polygon id="96" class="fil83" points="8785,9206 8862,9206 8862,11243 8785,11243 "/>
    </g>
    <g>
     <polygon id="97" class="fil84" points="8836,9206 8913,9206 8913,11243 8836,11243 "/>
    </g>
    <g>
     <polygon id="98" class="fil85" points="8888,9206 8965,9206 8965,11243 8888,11243 "/>
    </g>
    <g>
     <polygon id="99" class="fil86" points="8939,9206 9016,9206 9016,11243 8939,11243 "/>
    </g>
    <g>
     <polygon id="100" class="fil87" points="8991,9206 9068,9206 9068,11243 8991,11243 "/>
    </g>
    <g>
     <polygon id="101" class="fil88" points="9042,9206 9119,9206 9119,11243 9042,11243 "/>
    </g>
    <g>
     <polygon id="102" class="fil89" points="9094,9206 9171,9206 9171,11243 9094,11243 "/>
    </g>
    <g>
     <polygon id="103" class="fil90" points="9145,9206 9222,9206 9222,11243 9145,11243 "/>
    </g>
    <g>
     <polygon id="104" class="fil91" points="9197,9206 9274,9206 9274,11243 9197,11243 "/>
    </g>
    <g>
     <polygon id="105" class="fil92" points="9248,9206 9325,9206 9325,11243 9248,11243 "/>
    </g>
    <g>
     <polygon id="106" class="fil93" points="9300,9206 9377,9206 9377,11243 9300,11243 "/>
    </g>
    <g>
     <polygon id="107" class="fil94" points="9351,9206 9428,9206 9428,11243 9351,11243 "/>
    </g>
    <g>
     <polygon id="108" class="fil95" points="9402,9206 9480,9206 9480,11243 9402,11243 "/>
    </g>
    <g>
     <polygon id="109" class="fil96" points="9454,9206 9531,9206 9531,11243 9454,11243 "/>
    </g>
    <g>
     <polygon id="110" class="fil97" points="9505,9206 9583,9206 9583,11243 9505,11243 "/>
    </g>
    <g>
     <polygon id="111" class="fil98" points="9557,9206 9634,9206 9634,11243 9557,11243 "/>
    </g>
    <g>
     <polygon id="112" class="fil99" points="9608,9206 9686,9206 9686,11243 9608,11243 "/>
    </g>
    <g>
     <polygon id="113" class="fil100" points="9660,9206 9737,9206 9737,11243 9660,11243 "/>
    </g>
    <g>
     <polygon id="114" class="fil101" points="9711,9206 9789,9206 9789,11243 9711,11243 "/>
    </g>
    <g>
     <polygon id="115" class="fil102" points="9763,9206 9840,9206 9840,11243 9763,11243 "/>
    </g>
    <g>
     <polygon id="116" class="fil103" points="9814,9206 9892,9206 9892,11243 9814,11243 "/>
    </g>
    <g>
     <polygon id="117" class="fil104" points="9866,9206 9943,9206 9943,11243 9866,11243 "/>
    </g>
    <g>
     <polygon id="118" class="fil105" points="9917,9206 9994,9206 9994,11243 9917,11243 "/>
    </g>
    <g>
     <polygon id="119" class="fil106" points="9969,9206 10046,9206 10046,11243 9969,11243 "/>
    </g>
    <g>
     <polygon id="120" class="fil107" points="10020,9206 10097,9206 10097,11243 10020,11243 "/>
    </g>
    <g>
     <polygon id="121" class="fil108" points="10072,9206 10149,9206 10149,11243 10072,11243 "/>
    </g>
    <g>
     <polygon id="122" class="fil109" points="10123,9206 10200,9206 10200,11243 10123,11243 "/>
    </g>
    <g>
     <polygon id="123" class="fil110" points="10175,9206 10252,9206 10252,11243 10175,11243 "/>
    </g>
    <g>
     <polygon id="124" class="fil111" points="10226,9206 10303,9206 10303,11243 10226,11243 "/>
    </g>
    <g>
     <polygon id="125" class="fil112" points="10278,9206 10355,9206 10355,11243 10278,11243 "/>
    </g>
    <g>
     <polygon id="126" class="fil113" points="10329,9206 10406,9206 10406,11243 10329,11243 "/>
    </g>
    <g>
     <polygon id="127" class="fil114" points="10381,9206 10458,9206 10458,11243 10381,11243 "/>
    </g>
    <g>
     <polygon id="128" class="fil115" points="10432,9206 10509,9206 10509,11243 10432,11243 "/>
    </g>
    <g>
     <polygon id="129" class="fil116" points="10483,9206 10561,9206 10561,11243 10483,11243 "/>
    </g>
    <g>
     <polygon id="130" class="fil117" points="10535,9206 10612,9206 10612,11243 10535,11243 "/>
    </g>
    <g>
     <polygon id="131" class="fil118" points="10586,9206 10664,9206 10664,11243 10586,11243 "/>
    </g>
    <g>
     <polygon id="132" class="fil119" points="10638,9206 10715,9206 10715,11243 10638,11243 "/>
    </g>
    <g>
     <polygon id="133" class="fil120" points="10689,9206 10767,9206 10767,11243 10689,11243 "/>
    </g>
    <g>
     <polygon id="134" class="fil121" points="10741,9206 10818,9206 10818,11243 10741,11243 "/>
    </g>
    <g>
     <polygon id="135" class="fil122" points="10792,9206 10870,9206 10870,11243 10792,11243 "/>
    </g>
    <g>
     <polygon id="136" class="fil123" points="10844,9206 10921,9206 10921,11243 10844,11243 "/>
    </g>
    <g>
     <polygon id="137" class="fil124" points="10895,9206 10973,9206 10973,11243 10895,11243 "/>
    </g>
    <g>
     <polygon id="138" class="fil125" points="10947,9206 11024,9206 11024,11243 10947,11243 "/>
    </g>
    <g>
     <polygon id="139" class="fil126" points="10998,9206 11075,9206 11075,11243 10998,11243 "/>
    </g>
    <g>
     <polygon id="140" class="fil127" points="11050,9206 11127,9206 11127,11243 11050,11243 "/>
    </g>
    <g>
     <polygon id="141" class="fil128" points="11101,9206 11178,9206 11178,11243 11101,11243 "/>
    </g>
    <g>
     <polygon id="142" class="fil129" points="11153,9206 11230,9206 11230,11243 11153,11243 "/>
    </g>
    <g>
     <polygon id="143" class="fil130" points="11204,9206 11281,9206 11281,11243 11204,11243 "/>
    </g>
    <g>
     <polygon id="144" class="fil131" points="11256,9206 11333,9206 11333,11243 11256,11243 "/>
    </g>
    <g>
     <polygon id="145" class="fil132" points="11307,9206 11384,9206 11384,11243 11307,11243 "/>
    </g>
    <g>
     <polygon id="146" class="fil133" points="11359,9206 11436,9206 11436,11243 11359,11243 "/>
    </g>
    <g>
     <polygon id="147" class="fil134" points="11410,9206 11487,9206 11487,11243 11410,11243 "/>
    </g>
    <g>
     <polygon id="148" class="fil135" points="11462,9206 11539,9206 11539,11243 11462,11243 "/>
    </g>
    <g>
     <polygon id="149" class="fil136" points="11513,9206 11590,9206 11590,11243 11513,11243 "/>
    </g>
    <g>
     <polygon id="150" class="fil137" points="11565,9206 11642,9206 11642,11243 11565,11243 "/>
    </g>
    <g>
     <polygon id="151" class="fil138" points="11616,9206 11693,9206 11693,11243 11616,11243 "/>
    </g>
    <g>
     <polygon id="152" class="fil139" points="11667,9206 11745,9206 11745,11243 11667,11243 "/>
    </g>
    <g>
     <polygon id="153" class="fil140" points="11719,9206 11796,9206 11796,11243 11719,11243 "/>
    </g>
    <g>
     <polygon id="154" class="fil141" points="11770,9206 11848,9206 11848,11243 11770,11243 "/>
    </g>
    <g>
     <polygon id="155" class="fil142" points="11822,9206 11899,9206 11899,11243 11822,11243 "/>
    </g>
    <g>
     <polygon id="156" class="fil143" points="11873,9206 11951,9206 11951,11243 11873,11243 "/>
    </g>
    <g>
     <polygon id="157" class="fil144" points="11925,9206 12002,9206 12002,11243 11925,11243 "/>
    </g>
    <g>
     <polygon id="158" class="fil145" points="11976,9206 12054,9206 12054,11243 11976,11243 "/>
    </g>
    <g>
     <polygon id="159" class="fil146" points="12028,9206 12105,9206 12105,11243 12028,11243 "/>
    </g>
    <g>
     <polygon id="160" class="fil147" points="12079,9206 12156,9206 12156,11243 12079,11243 "/>
    </g>
    <g>
     <polygon id="161" class="fil148" points="12131,9206 12208,9206 12208,11243 12131,11243 "/>
    </g>
    <g>
     <polygon id="162" class="fil149" points="12182,9206 12259,9206 12259,11243 12182,11243 "/>
    </g>
    <g>
     <polygon id="163" class="fil150" points="12234,9206 12311,9206 12311,11243 12234,11243 "/>
    </g>
    <g>
     <polygon id="164" class="fil151" points="12285,9206 12362,9206 12362,11243 12285,11243 "/>
    </g>
    <g>
     <polygon id="165" class="fil152" points="12337,9206 12414,9206 12414,11243 12337,11243 "/>
    </g>
    <g>
     <polygon id="166" class="fil153" points="12388,9206 12465,9206 12465,11243 12388,11243 "/>
    </g>
    <g>
     <polygon id="167" class="fil154" points="12440,9206 12517,9206 12517,11243 12440,11243 "/>
    </g>
    <g>
     <polygon id="168" class="fil155" points="12491,9206 12568,9206 12568,11243 12491,11243 "/>
    </g>
    <g>
     <polygon id="169" class="fil156" points="12543,9206 12620,9206 12620,11243 12543,11243 "/>
    </g>
    <g>
     <polygon id="170" class="fil157" points="12594,9206 12671,9206 12671,11243 12594,11243 "/>
    </g>
    <g>
     <polygon id="171" class="fil158" points="12646,9206 12723,9206 12723,11243 12646,11243 "/>
    </g>
    <g>
     <polygon id="172" class="fil159" points="12697,9206 12774,9206 12774,11243 12697,11243 "/>
    </g>
    <g>
     <polygon id="173" class="fil160" points="12748,9206 12826,9206 12826,11243 12748,11243 "/>
    </g>
    <g>
     <polygon id="174" class="fil161" points="12800,9206 12877,9206 12877,11243 12800,11243 "/>
    </g>
    <g>
     <polygon id="175" class="fil162" points="12851,9206 12929,9206 12929,11243 12851,11243 "/>
    </g>
    <g>
     <polygon id="176" class="fil163" points="12903,9206 12980,9206 12980,11243 12903,11243 "/>
    </g>
    <g>
     <polygon id="177" class="fil164" points="12954,9206 13032,9206 13032,11243 12954,11243 "/>
    </g>
    <g>
     <polygon id="178" class="fil165" points="13006,9206 13083,9206 13083,11243 13006,11243 "/>
    </g>
    <g>
     <polygon id="179" class="fil166" points="13057,9206 13135,9206 13135,11243 13057,11243 "/>
    </g>
    <g>
     <polygon id="180" class="fil167" points="13109,9206 13186,9206 13186,11243 13109,11243 "/>
    </g>
    <g>
     <polygon id="181" class="fil168" points="13160,9206 13237,9206 13237,11243 13160,11243 "/>
    </g>
    <g>
     <polygon id="182" class="fil169" points="13212,9206 13289,9206 13289,11243 13212,11243 "/>
    </g>
    <g>
     <polygon id="183" class="fil170" points="13263,9206 13340,9206 13340,11243 13263,11243 "/>
    </g>
    <g>
     <polygon id="184" class="fil171" points="13315,9206 13392,9206 13392,11243 13315,11243 "/>
    </g>
    <g>
     <polygon id="185" class="fil172" points="13366,9206 13443,9206 13443,11243 13366,11243 "/>
    </g>
    <g>
     <polygon id="186" class="fil173" points="13418,9206 13495,9206 13495,11243 13418,11243 "/>
    </g>
    <g>
     <polygon id="187" class="fil174" points="13469,9206 13546,9206 13546,11243 13469,11243 "/>
    </g>
    <g>
     <polygon id="188" class="fil175" points="13521,9206 13598,9206 13598,11243 13521,11243 "/>
    </g>
    <g>
     <polygon id="189" class="fil176" points="13572,9206 13649,9206 13649,11243 13572,11243 "/>
    </g>
    <g>
     <polygon id="190" class="fil177" points="13624,9206 13701,9206 13701,11243 13624,11243 "/>
    </g>
    <g>
     <polygon id="191" class="fil178" points="13675,9206 13752,9206 13752,11243 13675,11243 "/>
    </g>
    <g>
     <polygon id="192" class="fil179" points="13727,9206 13804,9206 13804,11243 13727,11243 "/>
    </g>
    <g>
     <polygon id="193" class="fil180" points="13778,9206 13855,9206 13855,11243 13778,11243 "/>
    </g>
    <g>
     <polygon id="194" class="fil181" points="13829,9206 13907,9206 13907,11243 13829,11243 "/>
    </g>
    <g>
     <polygon id="195" class="fil182" points="13881,9206 13958,9206 13958,11243 13881,11243 "/>
    </g>
    <g>
     <polygon id="196" class="fil183" points="13932,9206 14010,9206 14010,11243 13932,11243 "/>
    </g>
    <g>
     <polygon id="197" class="fil184" points="13984,9206 14061,9206 14061,11243 13984,11243 "/>
    </g>
    <g>
     <polygon id="198" class="fil185" points="14035,9206 14113,9206 14113,11243 14035,11243 "/>
    </g>
    <g>
     <polygon id="199" class="fil186" points="14087,9206 14164,9206 14164,11243 14087,11243 "/>
    </g>
    <g>
     <polygon id="200" class="fil187" points="14138,9206 14216,9206 14216,11243 14138,11243 "/>
    </g>
    <g>
     <polygon id="201" class="fil188" points="14190,9206 14267,9206 14267,11243 14190,11243 "/>
    </g>
    <g>
     <polygon id="202" class="fil189" points="14241,9206 14319,9206 14319,11243 14241,11243 "/>
    </g>
    <g>
     <polygon id="203" class="fil190" points="14293,9206 14370,9206 14370,11243 14293,11243 "/>
    </g>
    <g>
     <polygon id="204" class="fil191" points="14344,9206 14421,9206 14421,11243 14344,11243 "/>
    </g>
    <g>
     <polygon id="205" class="fil192" points="14396,9206 14473,9206 14473,11243 14396,11243 "/>
    </g>
    <g>
     <polygon id="206" class="fil193" points="14447,9206 14524,9206 14524,11243 14447,11243 "/>
    </g>
    <g>
     <polygon id="207" class="fil194" points="14499,9206 14576,9206 14576,11243 14499,11243 "/>
    </g>
    <g>
     <polygon id="208" class="fil195" points="14550,9206 14627,9206 14627,11243 14550,11243 "/>
    </g>
    <g>
     <polygon id="209" class="fil196" points="14602,9206 14679,9206 14679,11243 14602,11243 "/>
    </g>
    <g>
     <polygon id="210" class="fil197" points="14653,9206 14730,9206 14730,11243 14653,11243 "/>
    </g>
    <g>
     <polygon id="211" class="fil198" points="14705,9206 14782,9206 14782,11243 14705,11243 "/>
    </g>
    <g>
     <polygon id="212" class="fil199" points="14756,9206 14833,9206 14833,11243 14756,11243 "/>
    </g>
    <g>
     <polygon id="213" class="fil200" points="14808,9206 14885,9206 14885,11243 14808,11243 "/>
    </g>
    <g>
     <polygon id="214" class="fil201" points="14859,9206 14936,9206 14936,11243 14859,11243 "/>
    </g>
    <g>
     <polygon id="215" class="fil202" points="14910,9206 14988,9206 14988,11243 14910,11243 "/>
    </g>
    <g>
     <polygon id="216" class="fil203" points="14962,9206 15039,9206 15039,11243 14962,11243 "/>
    </g>
    <g>
     <polygon id="217" class="fil204" points="15013,9206 15091,9206 15091,11243 15013,11243 "/>
    </g>
    <g>
     <polygon id="218" class="fil205" points="15065,9206 15142,9206 15142,11243 15065,11243 "/>
    </g>
    <g>
     <polygon id="219" class="fil206" points="15116,9206 15194,9206 15194,11243 15116,11243 "/>
    </g>
    <g>
     <polygon id="220" class="fil207" points="15168,9206 15245,9206 15245,11243 15168,11243 "/>
    </g>
    <g>
     <polygon id="221" class="fil208" points="15219,9206 15297,9206 15297,11243 15219,11243 "/>
    </g>
    <g>
     <polygon id="222" class="fil209" points="15271,9206 15348,9206 15348,11243 15271,11243 "/>
    </g>
    <g>
     <polygon id="223" class="fil210" points="15322,9206 15400,9206 15400,11243 15322,11243 "/>
    </g>
    <g>
     <polygon id="224" class="fil211" points="15374,9206 15451,9206 15451,11243 15374,11243 "/>
    </g>
    <g>
     <polygon id="225" class="fil212" points="15425,9206 15502,9206 15502,11243 15425,11243 "/>
    </g>
    <g>
     <polygon id="226" class="fil213" points="15477,9206 15554,9206 15554,11243 15477,11243 "/>
    </g>
    <g>
     <polygon id="227" class="fil214" points="15528,9206 15605,9206 15605,11243 15528,11243 "/>
    </g>
    <g>
     <polygon id="228" class="fil215" points="15580,9206 15657,9206 15657,11243 15580,11243 "/>
    </g>
    <g>
     <polygon id="229" class="fil216" points="15631,9206 15708,9206 15708,11243 15631,11243 "/>
    </g>
    <g>
     <polygon id="230" class="fil217" points="15683,9206 15760,9206 15760,11243 15683,11243 "/>
    </g>
    <g>
     <polygon id="231" class="fil218" points="15734,9206 15811,9206 15811,11243 15734,11243 "/>
    </g>
    <g>
     <polygon id="232" class="fil219" points="15786,9206 15863,9206 15863,11243 15786,11243 "/>
    </g>
    <g>
     <polygon id="233" class="fil220" points="15837,9206 15914,9206 15914,11243 15837,11243 "/>
    </g>
    <g>
     <polygon id="234" class="fil221" points="15889,9206 15966,9206 15966,11243 15889,11243 "/>
    </g>
    <g>
     <polygon id="235" class="fil222" points="15940,9206 16017,9206 16017,11243 15940,11243 "/>
    </g>
    <g>
     <polygon id="236" class="fil223" points="15991,9206 16069,9206 16069,11243 15991,11243 "/>
    </g>
    <g>
     <polygon id="237" class="fil224" points="16043,9206 16120,9206 16120,11243 16043,11243 "/>
    </g>
    <g>
     <polygon id="238" class="fil225" points="16094,9206 16172,9206 16172,11243 16094,11243 "/>
    </g>
    <g>
     <polygon id="239" class="fil226" points="16146,9206 16223,9206 16223,11243 16146,11243 "/>
    </g>
    <g>
     <polygon id="240" class="fil227" points="16197,9206 16275,9206 16275,11243 16197,11243 "/>
    </g>
    <g>
     <polygon id="241" class="fil228" points="16249,9206 16326,9206 16326,11243 16249,11243 "/>
    </g>
    <g>
     <polygon id="242" class="fil229" points="16300,9206 16378,9206 16378,11243 16300,11243 "/>
    </g>
    <g>
     <polygon id="243" class="fil230" points="16352,9206 16429,9206 16429,11243 16352,11243 "/>
    </g>
    <g>
     <polygon id="244" class="fil231" points="16403,9206 16481,9206 16481,11243 16403,11243 "/>
    </g>
    <g>
     <polygon id="245" class="fil232" points="16455,9206 16532,9206 16532,11243 16455,11243 "/>
    </g>
    <g>
     <polygon id="246" class="fil233" points="16506,9206 16583,9206 16583,11243 16506,11243 "/>
    </g>
    <g>
     <polygon id="247" class="fil234" points="16558,9206 16635,9206 16635,11243 16558,11243 "/>
    </g>
    <g>
     <polygon id="248" class="fil235" points="16609,9206 16686,9206 16686,11243 16609,11243 "/>
    </g>
    <g>
     <polygon id="249" class="fil236" points="16661,9206 16738,9206 16738,11243 16661,11243 "/>
    </g>
    <g>
     <polygon id="250" class="fil237" points="16712,9206 16789,9206 16789,11243 16712,11243 "/>
    </g>
    <g>
     <polygon id="251" class="fil238" points="16764,9206 16841,9206 16841,11243 16764,11243 "/>
    </g>
    <g>
     <polygon id="252" class="fil239" points="16815,9206 16892,9206 16892,11243 16815,11243 "/>
    </g>
    <g>
     <polygon id="253" class="fil240" points="16867,9206 16944,9206 16944,11243 16867,11243 "/>
    </g>
    <g>
     <polygon id="254" class="fil241" points="16918,9206 16995,9206 16995,11243 16918,11243 "/>
    </g>
    <g>
     <polygon id="255" class="fil242" points="16970,9206 17073,9206 17073,11243 16970,11243 "/>
    </g>
   </g>
  </g>
 </g>
</svg>
