<?xml version="1.0" encoding="UTF-8"?>
<!DOCTYPE svg PUBLIC "-//W3C//DTD SVG 1.1//EN" "http://www.w3.org/Graphics/SVG/1.1/DTD/svg11.dtd">
<svg  xmlns="http://www.w3.org/2000/svg" version="1.1" width="2433px" height="709px" style="shape-rendering:geometricPrecision; text-rendering:geometricPrecision; image-rendering:optimizeQuality; fill-rule:evenodd; clip-rule:evenodd" xmlns:xlink="http://www.w3.org/1999/xlink">
<g><path style="opacity:0.996" fill="#322b2a" d="M 1067.5,-0.5 C 1087.17,-0.5 1106.83,-0.5 1126.5,-0.5C 1126.5,165.167 1126.5,330.833 1126.5,496.5C 1106.83,496.5 1087.17,496.5 1067.5,496.5C 1067.5,330.833 1067.5,165.167 1067.5,-0.5 Z"/></g>
<g><path style="opacity:0.996" fill="#322b2a" d="M 1494.5,-0.5 C 1515.83,-0.5 1537.17,-0.5 1558.5,-0.5C 1558.5,165.167 1558.5,330.833 1558.5,496.5C 1537.17,496.5 1515.83,496.5 1494.5,496.5C 1494.67,477.83 1494.5,459.164 1494,440.5C 1442.67,499.291 1380.17,515.124 1306.5,488C 1251.45,462.613 1215.29,420.779 1198,362.5C 1179.48,284.077 1198.98,216.911 1256.5,161C 1301.29,123.3 1352.63,109.966 1410.5,121C 1444.49,129.4 1472.32,147.233 1494,174.5C 1494.5,116.168 1494.67,57.8343 1494.5,-0.5 Z M 1360.5,186.5 C 1422.74,184.101 1464.74,211.934 1486.5,270C 1502.65,331.244 1484.98,379.911 1433.5,416C 1388.76,440.214 1345.76,437.547 1304.5,408C 1259.05,367.376 1246.55,318.21 1267,260.5C 1284.84,218.809 1316.01,194.143 1360.5,186.5 Z"/></g>
<g><path style="opacity:0.996" fill="#322b2a" d="M 2432.5,480.5 C 2432.5,498.167 2432.5,515.833 2432.5,533.5C 2431.91,559.355 2431.08,585.355 2430,611.5C 2421.45,650.738 2398.95,678.905 2362.5,696C 2345.79,703.314 2328.29,706.814 2310,706.5C 2267.33,708.319 2231.67,693.652 2203,662.5C 2187.77,642.027 2178.61,619.027 2175.5,593.5C 2197.5,593.5 2219.5,593.5 2241.5,593.5C 2245,614.169 2256.66,628.002 2276.5,635C 2295.56,639.698 2314.56,639.365 2333.5,634C 2350.98,628.188 2361.81,616.355 2366,598.5C 2367.25,559.506 2367.58,520.506 2367,481.5C 2364.85,468.65 2357.68,460.15 2345.5,456C 2340.25,454.625 2334.92,453.792 2329.5,453.5C 2309.86,455.269 2290.2,455.769 2270.5,455C 2235.69,451.692 2208.85,435.525 2190,406.5C 2187.32,400.443 2185.65,394.11 2185,387.5C 2179.69,331.29 2177.69,274.957 2179,218.5C 2186.99,161.514 2219.49,128.681 2276.5,120C 2305.21,115.479 2333.21,118.145 2360.5,128C 2396.14,145.384 2418.3,173.551 2427,212.5C 2428.49,219.791 2429.66,227.125 2430.5,234.5C 2409.16,234.833 2387.82,234.5 2366.5,233.5C 2358.98,199.382 2337.65,183.048 2302.5,184.5C 2282.18,183.436 2264.68,189.769 2250,203.5C 2245.66,209.176 2242.66,215.51 2241,222.5C 2239.76,267.555 2240.76,312.555 2244,357.5C 2244.99,373.5 2253.49,383 2269.5,386C 2273.79,386.912 2278.13,387.579 2282.5,388C 2307.56,388.387 2332.56,389.72 2357.5,392C 2392.39,398.227 2415.56,418.061 2427,451.5C 2429.5,461.187 2431.33,470.854 2432.5,480.5 Z"/></g>
<g><path style="opacity:0.996" fill="#322b2a" d="M 118.5,119.5 C 147.792,117.406 174.792,124.24 199.5,140C 207.309,145.641 214.975,151.475 222.5,157.5C 202.755,170.726 182.589,183.392 162,195.5C 120.095,177.946 89.095,189.612 69,230.5C 66.3914,236.934 64.7247,243.601 64,250.5C 63.5,332.499 63.3333,414.499 63.5,496.5C 42.5,496.5 21.5,496.5 0.5,496.5C 0.333336,412.166 0.500003,327.833 1,243.5C 7.52691,190.912 34.3602,152.745 81.5,129C 93.5979,124.393 105.931,121.226 118.5,119.5 Z"/></g>
<g><path style="opacity:0.995" fill="#322b2a" d="M 2112.5,708.5 C 2090.5,708.5 2068.5,708.5 2046.5,708.5C 2046.67,556.833 2046.5,405.166 2046,253.5C 2038.85,214.848 2015.68,193.848 1976.5,190.5C 1945.67,192.174 1923.51,206.84 1910,234.5C 1908.2,239.375 1906.86,244.375 1906,249.5C 1904.51,402.48 1904.01,555.48 1904.5,708.5C 1882.5,708.5 1860.5,708.5 1838.5,708.5C 1838.98,555.15 1838.48,401.816 1837,248.5C 1830.32,218.152 1811.82,199.318 1781.5,192C 1744.42,187.29 1717.92,201.79 1702,235.5C 1699.39,241.934 1697.72,248.601 1697,255.5C 1696.5,406.5 1696.33,557.5 1696.5,708.5C 1674.5,708.5 1652.5,708.5 1630.5,708.5C 1630.5,516.167 1630.5,323.833 1630.5,131.5C 1652.5,131.5 1674.5,131.5 1696.5,131.5C 1696.33,140.173 1696.5,148.84 1697,157.5C 1724.67,126.503 1758.84,116.003 1799.5,126C 1828.16,133.737 1851.99,148.903 1871,171.5C 1909.23,128.981 1956.4,114.147 2012.5,127C 2048.88,137.759 2076.38,159.593 2095,192.5C 2104.5,209.995 2110.16,228.661 2112,248.5C 2112.5,401.833 2112.67,555.166 2112.5,708.5 Z"/></g>
<g><path style="opacity:0.995" fill="#322b2a" d="M 379.5,123.5 C 466.88,120.128 529.046,157.795 566,236.5C 579.185,269.385 583.352,303.385 578.5,338.5C 480.499,338.333 382.499,338.5 284.5,339C 285.395,347.466 287.562,355.633 291,363.5C 326.255,425.808 377.755,445.308 445.5,422C 460.665,414.512 473.831,404.345 485,391.5C 490.786,383.557 496.786,375.89 503,368.5C 520.9,379.201 538.734,390.035 556.5,401C 557.517,402.049 557.684,403.216 557,404.5C 531.192,447.978 494.358,477.811 446.5,494C 366.717,512.076 301.551,489.243 251,425.5C 212.448,368.628 204.448,307.628 227,242.5C 255.219,173.774 306.052,134.107 379.5,123.5 Z M 385.5,185.5 C 424.27,183.141 457.436,195.474 485,222.5C 500.581,238.667 508.748,258 509.5,280.5C 434.499,280.667 359.499,280.5 284.5,280C 287.987,248.365 302.987,223.698 329.5,206C 346.761,195.082 365.428,188.249 385.5,185.5 Z"/></g>
<g><path style="opacity:0.994" fill="#322b2a" d="M 806.5,123.5 C 856.582,123.007 897.749,141.674 930,179.5C 930.5,163.503 930.667,147.503 930.5,131.5C 952.5,131.5 974.5,131.5 996.5,131.5C 996.5,253.167 996.5,374.833 996.5,496.5C 974.5,496.5 952.5,496.5 930.5,496.5C 930.667,478.164 930.5,459.83 930,441.5C 877.627,501.048 814.46,515.882 740.5,486C 679.527,456.592 643.36,408.425 632,341.5C 623.451,271.801 644.951,213.301 696.5,166C 728.519,139.824 765.186,125.658 806.5,123.5 Z M 801.5,191.5 C 855.958,189.629 895.125,212.963 919,261.5C 937.345,308.08 931.678,351.414 902,391.5C 866.182,430.247 823.016,441.747 772.5,426C 727.302,407.138 701.802,373.305 696,324.5C 693.091,284.55 705.591,250.383 733.5,222C 753.148,205.007 775.815,194.841 801.5,191.5 Z"/></g>
<g><path style="opacity:0.997" fill="#508cee" d="M 297.5,525.5 C 297.5,553.167 297.5,580.833 297.5,608.5C 285.51,609.352 273.51,610.352 261.5,611.5C 261.824,583.426 261.491,555.426 260.5,527.5C 272.77,525.957 285.103,525.291 297.5,525.5 Z"/></g>
<g><path style="opacity:0.998" fill="#5087ed" d="M 323.5,525.5 C 322.841,553.264 322.175,580.931 321.5,608.5C 313.5,608.5 305.5,608.5 297.5,608.5C 297.5,580.833 297.5,553.167 297.5,525.5C 306.14,524.695 314.807,524.695 323.5,525.5 Z"/></g>
<g><path style="opacity:0.999" fill="#5182ed" d="M 323.5,525.5 C 335.515,525.911 347.515,526.578 359.5,527.5C 358.509,555.426 358.176,583.426 358.5,611.5C 346.02,610.461 333.687,609.461 321.5,608.5C 322.175,580.931 322.841,553.264 323.5,525.5 Z"/></g>
<g><path style="opacity:0.994" fill="#4f92ee" d="M 260.5,527.5 C 261.491,555.426 261.824,583.426 261.5,611.5C 249.149,613.392 236.816,615.392 224.5,617.5C 224.5,589.5 224.5,561.5 224.5,533.5C 223.5,533.5 222.5,533.5 221.5,533.5C 234.2,530.399 247.2,528.399 260.5,527.5 Z"/></g>
<g><path style="opacity:0.995" fill="#527eec" d="M 359.5,527.5 C 369.645,528.848 379.645,530.514 389.5,532.5C 388.825,560.402 388.159,588.402 387.5,616.5C 377.906,614.557 368.239,612.891 358.5,611.5C 358.176,583.426 358.509,555.426 359.5,527.5 Z"/></g>
<g><path style="opacity:0.992" fill="#5379ec" d="M 389.5,532.5 C 405.852,534.703 421.852,538.036 437.5,542.5C 437.831,570.672 437.498,598.672 436.5,626.5C 420.272,622.654 403.939,619.321 387.5,616.5C 388.159,588.402 388.825,560.402 389.5,532.5 Z"/></g>
<g><path style="opacity:0.995" fill="#4e98ee" d="M 221.5,533.5 C 222.5,533.5 223.5,533.5 224.5,533.5C 224.5,561.5 224.5,589.5 224.5,617.5C 208.423,621.523 192.423,626.19 176.5,631.5C 176.5,602.5 176.5,573.5 176.5,544.5C 191.051,539.446 206.051,535.779 221.5,533.5 Z"/></g>
<g><path style="opacity:0.992" fill="#5473ec" d="M 437.5,542.5 C 454.043,546.052 470.376,550.386 486.5,555.5C 486.5,584.167 486.5,612.833 486.5,641.5C 469.643,636.79 452.976,631.79 436.5,626.5C 437.498,598.672 437.831,570.672 437.5,542.5 Z"/></g>
<g><path style="opacity:0.994" fill="#4d9fef" d="M 176.5,544.5 C 176.5,573.5 176.5,602.5 176.5,631.5C 159.818,637.674 143.485,644.674 127.5,652.5C 127.5,622.167 127.5,591.833 127.5,561.5C 143.326,554.447 159.659,548.78 176.5,544.5 Z"/></g>
<g><path style="opacity:0.992" fill="#556deb" d="M 486.5,555.5 C 502.563,560.632 518.563,565.965 534.5,571.5C 534.831,600.338 534.498,629.005 533.5,657.5C 517.622,652.541 501.955,647.208 486.5,641.5C 486.5,612.833 486.5,584.167 486.5,555.5 Z"/></g>
<g><path style="opacity:0.995" fill="#4ba5ef" d="M 127.5,561.5 C 127.5,591.833 127.5,622.167 127.5,652.5C 111.847,660.325 96.5136,668.658 81.5,677.5C 79.5075,646.851 78.8409,615.851 79.5,584.5C 94.913,575.795 110.913,568.128 127.5,561.5 Z"/></g>
<g><path style="opacity:0.996" fill="#596bea" d="M 534.5,571.5 C 543.137,573.932 551.47,576.932 559.5,580.5C 559.5,609.167 559.5,637.833 559.5,666.5C 550.471,664.269 541.804,661.269 533.5,657.5C 534.498,629.005 534.831,600.338 534.5,571.5 Z"/></g>
<g><path style="opacity:0.996" fill="#4aabf0" d="M 79.5,584.5 C 78.8409,615.851 79.5075,646.851 81.5,677.5C 69.8074,684.771 58.3074,692.438 47,700.5C 41.2812,692.955 35.7812,685.288 30.5,677.5C 30.5,655.833 30.5,634.167 30.5,612.5C 46.0112,601.906 62.3446,592.572 79.5,584.5 Z"/></g>
<g><path style="opacity:0.99" fill="#6069e7" d="M 559.5,580.5 C 572.094,584.698 584.76,588.698 597.5,592.5C 595.521,620.608 594.855,648.941 595.5,677.5C 583.164,674.608 571.164,670.941 559.5,666.5C 559.5,637.833 559.5,609.167 559.5,580.5 Z"/></g>
<g><path style="opacity:0.993" fill="#6866e2" d="M 597.5,592.5 C 615.41,598.142 633.41,603.142 651.5,607.5C 650.502,634.995 650.169,662.662 650.5,690.5C 631.884,687.262 613.55,682.929 595.5,677.5C 594.855,648.941 595.521,620.608 597.5,592.5 Z"/></g>
<g><path style="opacity:0.996" fill="#7663dc" d="M 651.5,607.5 C 667.668,610.268 683.668,613.268 699.5,616.5C 698.502,643.662 698.169,670.995 698.5,698.5C 682.358,696.476 666.358,693.81 650.5,690.5C 650.169,662.662 650.502,634.995 651.5,607.5 Z"/></g>
<g><path style="opacity:0.976" fill="#49aef0" d="M 30.5,612.5 C 30.5,634.167 30.5,655.833 30.5,677.5C 20.1667,663.5 9.83333,649.5 -0.5,635.5C -0.5,634.5 -0.5,633.5 -0.5,632.5C 9.81573,625.86 20.1491,619.193 30.5,612.5 Z"/></g>
<g><path style="opacity:0.992" fill="#7f60d8" d="M 699.5,616.5 C 709.699,617.357 719.699,618.69 729.5,620.5C 729.5,647.833 729.5,675.167 729.5,702.5C 719.122,701.411 708.789,700.078 698.5,698.5C 698.169,670.995 698.502,643.662 699.5,616.5 Z"/></g>
<g><path style="opacity:0.992" fill="#8b5dd2" d="M 729.5,620.5 C 743.545,621.571 757.545,622.905 771.5,624.5C 771.5,651.5 771.5,678.5 771.5,705.5C 757.457,705.052 743.457,704.052 729.5,702.5C 729.5,675.167 729.5,647.833 729.5,620.5 Z"/></g>
<g><path style="opacity:0.993" fill="#925bcf" d="M 771.5,624.5 C 780.487,625.107 789.487,625.44 798.5,625.5C 796.052,626.473 793.385,626.806 790.5,626.5C 790.824,653.574 790.491,680.574 789.5,707.5C 783.399,706.872 777.399,706.205 771.5,705.5C 771.5,678.5 771.5,651.5 771.5,624.5 Z"/></g>
<g><path style="opacity:0.987" fill="#9859cc" d="M 798.5,625.5 C 805.833,625.5 813.167,625.5 820.5,625.5C 818.735,626.461 816.735,626.795 814.5,626.5C 814.5,653.5 814.5,680.5 814.5,707.5C 806.167,707.5 797.833,707.5 789.5,707.5C 790.491,680.574 790.824,653.574 790.5,626.5C 793.385,626.806 796.052,626.473 798.5,625.5 Z"/></g>
<g><path style="opacity:0.979" fill="#d14ab1" d="M 1021.5,625.5 C 1031.5,625.5 1041.5,625.5 1051.5,625.5C 1049.74,626.461 1047.74,626.795 1045.5,626.5C 1045.5,653.5 1045.5,680.5 1045.5,707.5C 1035.5,707.5 1025.5,707.5 1015.5,707.5C 1015.5,680.5 1015.5,653.5 1015.5,626.5C 1017.74,626.795 1019.74,626.461 1021.5,625.5 Z"/></g>
<g><path style="opacity:0.988" fill="#ea6180" d="M 1288.5,625.5 C 1294.5,625.5 1300.5,625.5 1306.5,625.5C 1308.26,626.461 1310.26,626.795 1312.5,626.5C 1312.5,653.167 1312.5,679.833 1312.5,706.5C 1314.74,706.205 1316.74,706.539 1318.5,707.5C 1308.5,707.5 1298.5,707.5 1288.5,707.5C 1288.5,680.167 1288.5,652.833 1288.5,625.5 Z"/></g>
<g><path style="opacity:0.988" fill="#f06973" d="M 1355.5,625.5 C 1361.5,625.5 1367.5,625.5 1373.5,625.5C 1373.5,652.833 1373.5,680.167 1373.5,707.5C 1363.5,707.5 1353.5,707.5 1343.5,707.5C 1345.26,706.539 1347.26,706.205 1349.5,706.5C 1349.5,679.833 1349.5,653.167 1349.5,626.5C 1351.74,626.795 1353.74,626.461 1355.5,625.5 Z"/></g>
<g><path style="opacity:0.992" fill="#f77261" d="M 1428.5,625.5 C 1438.5,625.5 1448.5,625.5 1458.5,625.5C 1462.3,626.483 1466.3,626.817 1470.5,626.5C 1470.5,653.5 1470.5,680.5 1470.5,707.5C 1456.5,707.5 1442.5,707.5 1428.5,707.5C 1428.5,680.167 1428.5,652.833 1428.5,625.5 Z"/></g>
<g><path style="opacity:0.997" fill="#a058c8" d="M 820.5,625.5 C 826.5,625.5 832.5,625.5 838.5,625.5C 838.5,652.833 838.5,680.167 838.5,707.5C 830.5,707.5 822.5,707.5 814.5,707.5C 814.5,680.5 814.5,653.5 814.5,626.5C 816.735,626.795 818.735,626.461 820.5,625.5 Z"/></g>
<g><path style="opacity:0.997" fill="#a656c5" d="M 838.5,625.5 C 842.5,625.5 846.5,625.5 850.5,625.5C 852.607,626.468 854.941,626.802 857.5,626.5C 857.5,653.5 857.5,680.5 857.5,707.5C 851.167,707.5 844.833,707.5 838.5,707.5C 838.5,680.167 838.5,652.833 838.5,625.5 Z"/></g>
<g><path style="opacity:0.997" fill="#ab54c3" d="M 850.5,625.5 C 860.833,625.5 871.167,625.5 881.5,625.5C 881.5,652.833 881.5,680.167 881.5,707.5C 873.5,707.5 865.5,707.5 857.5,707.5C 857.5,680.5 857.5,653.5 857.5,626.5C 854.941,626.802 852.607,626.468 850.5,625.5 Z"/></g>
<g><path style="opacity:0.997" fill="#b252c0" d="M 881.5,625.5 C 887.5,625.5 893.5,625.5 899.5,625.5C 901.265,626.461 903.265,626.795 905.5,626.5C 905.5,653.5 905.5,680.5 905.5,707.5C 897.5,707.5 889.5,707.5 881.5,707.5C 881.5,680.167 881.5,652.833 881.5,625.5 Z"/></g>
<g><path style="opacity:0.997" fill="#b950bc" d="M 899.5,625.5 C 915.833,625.5 932.167,625.5 948.5,625.5C 944.702,626.483 940.702,626.817 936.5,626.5C 936.5,653.5 936.5,680.5 936.5,707.5C 926.167,707.5 915.833,707.5 905.5,707.5C 905.5,680.5 905.5,653.5 905.5,626.5C 903.265,626.795 901.265,626.461 899.5,625.5 Z"/></g>
<g><path style="opacity:0.997" fill="#bf4fba" d="M 948.5,625.5 C 956.5,625.5 964.5,625.5 972.5,625.5C 966.69,626.49 960.69,626.823 954.5,626.5C 954.5,653.5 954.5,680.5 954.5,707.5C 948.5,707.5 942.5,707.5 936.5,707.5C 936.5,680.5 936.5,653.5 936.5,626.5C 940.702,626.817 944.702,626.483 948.5,625.5 Z"/></g>
<g><path style="opacity:0.997" fill="#c44db7" d="M 972.5,625.5 C 976.5,625.5 980.5,625.5 984.5,625.5C 984.5,652.833 984.5,680.167 984.5,707.5C 974.5,707.5 964.5,707.5 954.5,707.5C 954.5,680.5 954.5,653.5 954.5,626.5C 960.69,626.823 966.69,626.49 972.5,625.5 Z"/></g>
<g><path style="opacity:0.997" fill="#cb4cb4" d="M 984.5,625.5 C 996.833,625.5 1009.17,625.5 1021.5,625.5C 1019.74,626.461 1017.74,626.795 1015.5,626.5C 1015.5,653.5 1015.5,680.5 1015.5,707.5C 1005.17,707.5 994.833,707.5 984.5,707.5C 984.5,680.167 984.5,652.833 984.5,625.5 Z"/></g>
<g><path style="opacity:0.997" fill="#d749ae" d="M 1051.5,625.5 C 1055.5,625.5 1059.5,625.5 1063.5,625.5C 1067.3,626.483 1071.3,626.817 1075.5,626.5C 1075.5,653.5 1075.5,680.5 1075.5,707.5C 1065.5,707.5 1055.5,707.5 1045.5,707.5C 1045.5,680.5 1045.5,653.5 1045.5,626.5C 1047.74,626.795 1049.74,626.461 1051.5,625.5 Z"/></g>
<g><path style="opacity:0.997" fill="#d94baa" d="M 1063.5,625.5 C 1077.83,625.5 1092.17,625.5 1106.5,625.5C 1106.5,652.833 1106.5,680.167 1106.5,707.5C 1096.17,707.5 1085.83,707.5 1075.5,707.5C 1075.5,680.5 1075.5,653.5 1075.5,626.5C 1071.3,626.817 1067.3,626.483 1063.5,625.5 Z"/></g>
<g><path style="opacity:0.997" fill="#db4ea4" d="M 1106.5,625.5 C 1118.5,625.5 1130.5,625.5 1142.5,625.5C 1140.74,626.461 1138.74,626.795 1136.5,626.5C 1136.5,653.5 1136.5,680.5 1136.5,707.5C 1126.5,707.5 1116.5,707.5 1106.5,707.5C 1106.5,680.167 1106.5,652.833 1106.5,625.5 Z"/></g>
<g><path style="opacity:0.997" fill="#dd50a0" d="M 1142.5,625.5 C 1144.5,625.5 1146.5,625.5 1148.5,625.5C 1150.26,626.461 1152.26,626.795 1154.5,626.5C 1154.5,653.5 1154.5,680.5 1154.5,707.5C 1148.5,707.5 1142.5,707.5 1136.5,707.5C 1136.5,680.5 1136.5,653.5 1136.5,626.5C 1138.74,626.795 1140.74,626.461 1142.5,625.5 Z"/></g>
<g><path style="opacity:0.994" fill="#df539b" d="M 1148.5,625.5 C 1164.83,625.5 1181.17,625.5 1197.5,625.5C 1195.74,626.461 1193.74,626.795 1191.5,626.5C 1191.5,653.167 1191.5,679.833 1191.5,706.5C 1195.7,706.183 1199.7,706.517 1203.5,707.5C 1187.17,707.5 1170.83,707.5 1154.5,707.5C 1154.5,680.5 1154.5,653.5 1154.5,626.5C 1152.26,626.795 1150.26,626.461 1148.5,625.5 Z"/></g>
<g><path style="opacity:0.997" fill="#e15695" d="M 1197.5,625.5 C 1205.5,625.5 1213.5,625.5 1221.5,625.5C 1217.7,626.483 1213.7,626.817 1209.5,626.5C 1209.5,653.5 1209.5,680.5 1209.5,707.5C 1207.5,707.5 1205.5,707.5 1203.5,707.5C 1199.7,706.517 1195.7,706.183 1191.5,706.5C 1191.5,679.833 1191.5,653.167 1191.5,626.5C 1193.74,626.795 1195.74,626.461 1197.5,625.5 Z"/></g>
<g><path style="opacity:0.997" fill="#e35892" d="M 1221.5,625.5 C 1225.5,625.5 1229.5,625.5 1233.5,625.5C 1233.5,652.833 1233.5,680.167 1233.5,707.5C 1225.5,707.5 1217.5,707.5 1209.5,707.5C 1209.5,680.5 1209.5,653.5 1209.5,626.5C 1213.7,626.817 1217.7,626.483 1221.5,625.5 Z"/></g>
<g><path style="opacity:0.997" fill="#e55b8c" d="M 1233.5,625.5 C 1245.83,625.5 1258.17,625.5 1270.5,625.5C 1268.74,626.461 1266.74,626.795 1264.5,626.5C 1264.5,653.167 1264.5,679.833 1264.5,706.5C 1262.26,706.205 1260.26,706.539 1258.5,707.5C 1250.17,707.5 1241.83,707.5 1233.5,707.5C 1233.5,680.167 1233.5,652.833 1233.5,625.5 Z"/></g>
<g><path style="opacity:0.997" fill="#e85f86" d="M 1270.5,625.5 C 1276.5,625.5 1282.5,625.5 1288.5,625.5C 1288.5,652.833 1288.5,680.167 1288.5,707.5C 1278.5,707.5 1268.5,707.5 1258.5,707.5C 1260.26,706.539 1262.26,706.205 1264.5,706.5C 1264.5,679.833 1264.5,653.167 1264.5,626.5C 1266.74,626.795 1268.74,626.461 1270.5,625.5 Z"/></g>
<g><path style="opacity:0.997" fill="#ec647b" d="M 1306.5,625.5 C 1316.83,625.5 1327.17,625.5 1337.5,625.5C 1335.74,626.461 1333.74,626.795 1331.5,626.5C 1331.5,653.5 1331.5,680.5 1331.5,707.5C 1327.17,707.5 1322.83,707.5 1318.5,707.5C 1316.74,706.539 1314.74,706.205 1312.5,706.5C 1312.5,679.833 1312.5,653.167 1312.5,626.5C 1310.26,626.795 1308.26,626.461 1306.5,625.5 Z"/></g>
<g><path style="opacity:0.998" fill="#ee6677" d="M 1337.5,625.5 C 1343.5,625.5 1349.5,625.5 1355.5,625.5C 1353.74,626.461 1351.74,626.795 1349.5,626.5C 1349.5,653.167 1349.5,679.833 1349.5,706.5C 1347.26,706.205 1345.26,706.539 1343.5,707.5C 1339.5,707.5 1335.5,707.5 1331.5,707.5C 1331.5,680.5 1331.5,653.5 1331.5,626.5C 1333.74,626.795 1335.74,626.461 1337.5,625.5 Z"/></g>
<g><path style="opacity:0.996" fill="#f26b6e" d="M 1373.5,625.5 C 1387.83,625.5 1402.17,625.5 1416.5,625.5C 1410.36,626.49 1404.02,626.823 1397.5,626.5C 1397.5,653.167 1397.5,679.833 1397.5,706.5C 1400.06,706.198 1402.39,706.532 1404.5,707.5C 1394.17,707.5 1383.83,707.5 1373.5,707.5C 1373.5,680.167 1373.5,652.833 1373.5,625.5 Z"/></g>
<g><path style="opacity:0.998" fill="#f46e68" d="M 1416.5,625.5 C 1420.5,625.5 1424.5,625.5 1428.5,625.5C 1428.5,652.833 1428.5,680.167 1428.5,707.5C 1420.5,707.5 1412.5,707.5 1404.5,707.5C 1402.39,706.532 1400.06,706.198 1397.5,706.5C 1397.5,679.833 1397.5,653.167 1397.5,626.5C 1404.02,626.823 1410.36,626.49 1416.5,625.5 Z"/></g>
<g><path style="opacity:0.994" fill="#f9755c" d="M 1458.5,625.5 C 1474.83,625.5 1491.17,625.5 1507.5,625.5C 1501.69,626.49 1495.69,626.823 1489.5,626.5C 1489.5,653.167 1489.5,679.833 1489.5,706.5C 1493.7,706.183 1497.7,706.517 1501.5,707.5C 1491.17,707.5 1480.83,707.5 1470.5,707.5C 1470.5,680.5 1470.5,653.5 1470.5,626.5C 1466.3,626.817 1462.3,626.483 1458.5,625.5 Z"/></g>
<g><path style="opacity:0.998" fill="#fb7759" d="M 1507.5,625.5 C 1509.5,625.5 1511.5,625.5 1513.5,625.5C 1513.5,652.833 1513.5,680.167 1513.5,707.5C 1509.5,707.5 1505.5,707.5 1501.5,707.5C 1497.7,706.517 1493.7,706.183 1489.5,706.5C 1489.5,679.833 1489.5,653.167 1489.5,626.5C 1495.69,626.823 1501.69,626.49 1507.5,625.5 Z"/></g>
<g><path style="opacity:0.997" fill="#fd7a53" d="M 1513.5,625.5 C 1527.83,625.5 1542.17,625.5 1556.5,625.5C 1556.5,652.833 1556.5,680.167 1556.5,707.5C 1542.17,707.5 1527.83,707.5 1513.5,707.5C 1513.5,680.167 1513.5,652.833 1513.5,625.5 Z"/></g>
</svg>
