<svg xmlns="http://www.w3.org/2000/svg" width="100" height="80" viewBox="0 0 3508 2480" xmlns:v="https://vecta.io/nano"><defs><clipPath id="A"><path d="M0 0h3508v2480H0z"/></clipPath><linearGradient id="B" x1="460" y1="1254.5" x2="980.7" y2="1254.5" href="#B" gradientUnits="userSpaceOnUse"><stop stop-color="#4ab1f1"/><stop offset=".34" stop-color="#566cec"/><stop offset=".68" stop-color="#d749af"/><stop offset="1" stop-color="#ff7c51"/></linearGradient></defs>\  <g clip-path="url(#A)"><path fill-rule="evenodd" d="M628.6 821.3q-17.4-8.2-31.1-8.2-29 0-47.8 20.9-20.3 22.4-20.3 51.6v237.5h-62.2V885.6q0-40.4 19.9-74 19.9-33.6 54.6-52.3 26.1-12.7 55.8-12.7 23.8 0 45.6 8.9 21.7 9 45.6 29.2zm122.3 143.4q0 18 12.7 37.4 12.6 19.4 29.3 32.9 30.4 24.6 70.9 24.6 64.4 0 105-64.2l55 33.6q-28.2 47.1-69.5 72.5-41.3 25.4-90.5 25.4-36.9 0-70.2-14.6-33.3-14.6-58.6-40.7-25.4-26.2-39.5-60.5-14.1-34.4-14.1-72.5 0-38.1 14.1-72.9 14.1-34.7 39.5-60.9 24.6-26.1 58.2-40.3 33.7-14.2 70.6-14.2 36.9 0 70.6 14.2 33.6 14.2 58.3 40.3 53.5 56.8 53.5 131.5 0 13.5-2.2 28.4zm113-153.1q-29.7 0-55.8 13.4-26 13.5-41.6 35.5-15.6 22.1-15.6 46.7h225.9q0-24.6-15.6-46.7-15.5-22-41.6-35.5-26.1-13.4-55.7-13.4zm533.4 311.5v-56.8q-23.1 27.7-53.5 44.1-30.4 16.5-64.4 16.5-37.7 0-70.6-14.2-33-14.2-58.3-40.4-25.3-25.4-39.4-60.1-14.2-34.8-14.2-72.9 0-38.1 14.2-72.8 14.1-34.8 39.4-60.9 25.3-26.2 58.3-40.4 32.9-14.1 70.6-14.1 34.7 0 65.5 14.9 30.7 14.9 52.4 41.8v-49.3h65.2v364.6zm-118-305.6q-23.9 0-46 9.4-22 9.3-38 25.8-15.9 16.4-24.9 39.2-9.1 22.8-9.1 47.4 0 24.7 9.1 47.1 9 22.4 24.9 38.9 16 16.4 38 25.7 22.1 9.4 46 9.4 23.9 0 45.6-9.4 21.7-9.3 37.6-25.7 16-16.5 25-38.9 9.1-22.4 9.1-47.1 0-24.6-9.1-47.4-9-22.8-25-39.2-15.9-16.5-37.6-25.8-21.7-9.4-45.6-9.4zm255.5 305.6V626.3h57.9v496.8zm426.4 0v-57.5q-23.2 28.4-54.7 44.8-31.5 16.5-65.5 16.5-38.4 0-71.7-14.6-33.2-14.6-57.9-41.5-25.3-26.9-39.4-61.6-14.1-34.7-14.1-73.6 0-38.9 14.1-73.6 14.1-34.7 39.4-61.6 24.7-26.9 57.9-41.5 33.3-14.6 71.7-14.6 37.6 0 68.4 15.7 30.8 15.7 51.8 43.4V627h63.7v496.1zM1841 812.3q-23.9 0-45.6 9.4-21.7 9.3-37.6 26.5-16 17.2-25.4 40-9.4 22.7-9.4 47.4 0 50.1 34.8 87.4 15.9 17.2 37.6 26.9 21.7 9.7 45.6 9.7 23.9 0 46-9.7 22.1-9.7 38-26.9 34.7-37.3 34.7-87.4 0-24.7-9.4-47.4-9.4-22.8-25.3-40-15.9-17.2-38-26.5-22.1-9.4-46-9.4zm672.5 522.2V889.3q0-30.7-20.7-51.6-20.6-20.9-50.3-20.9-28.9 0-50.6 20.9c-14 13.5-21 30.4-21 50.8v446H2305v-446c0-20.9-6.8-37.8-20.3-50.8-14.5-13.9-31.6-20.9-51.4-20.9q-28.9 0-49.2 20.9c-14.5 15-21.7 32.7-21.7 53.1v443.7h-65.2v-576h65.2v27.7q12.3-15.7 32.2-26.2 19.9-10.4 38.7-10.4 31.9 0 58.3 13 26.4 13.1 46 36.3 19.5-23.2 46.3-36.3 26.8-13 58.6-13 28.2 0 52.9 10.4 24.6 10.5 43.4 29.9 18.8 19.4 29.3 45.2c7 17.2 10.5 35.3 10.5 54.2v445.2zm319.9-473.6c-1.4-9-4.7-17.3-9.4-25.4-9.3-16.3-27.2-24.7-54.3-24.7-14.4 0-25.4 2-33.3 5.3-10 4.2-17.7 9.7-22.8 17.1q-7.6 11.2-7.6 24.7c0 11-.1 133.7 7.6 142.6q3.7 4.4 8.9 7.4c7.8 4.6 18.2 7.1 30.9 7.6 32.3 1.2 62.6.1 82.6 6.6 10.1 3.2 19.1 7.8 26.9 13.5a78.93 78.93 0 0 1 19.4 20.1c9.9 14.5 15.3 34.3 16.1 59.5.1 2.5-1.2 103.1-1.2 105.7q0 44.1-32.5 76.2-16 15.7-37.3 25.4-21.4 9.7-44.5 9.7H2772c-38.6 0-69.6-11.5-93.4-34.3-19.2-18.5-31.3-44.4-36.2-77.7h64.5c2.4 11.9 7.1 21.7 14.4 29.1 11 11 26.6 16.4 46.4 16.4 5.3 0 9.1-.5 11.5-.7 16.9-1.3 30.2-5.9 39.9-14.6q14.4-13.1 14.4-32.5l1.1-104.7c-1.2-14.2-6.4-23.6-15.6-28.4-2.8-1.4-6.3-2.7-10.5-3.7-11.6-3-32.7.9-55.1.9-38.1 0-67-12.8-87.6-37.4-3.5-4.1-6.6-8.5-9.3-13.1-10-16.6-11.3-148.7-11.3-171.4 0-6.4.3-11.4.8-14.9 3.9-32.4 16.7-57.2 38.7-74.3q32.9-25.8 87.2-25.8c26.5 0 49.8 5.7 69.5 17.9 14.1 8.8 26.2 21.3 36.2 37.4 9.8 15.8 15.9 35.8 18.8 59.7l-1.4.8z" fill="#2c2e35"/><path d="m460 1254.5c236.5-167.2 412.4-105.2 571-49.4 78.9 27.8 151.5 37.3 222.9 41.9h2.9 3.8 755.8v80.9h-752.1c-89.6-3.8-172.4-15.3-260.5-46.4-139.7-49.1-294.6-103.7-496.4 38.9z" fill="url(#B)"/></g></svg>