    <svg
                  class="hidden transition-all duration-500 group-hover:rotate-12 dark:block"
                  width="16"
                  height="16"
                  viewBox="0 0 14 14"
                  fill="#FFFFFF"
                  xmlns="http://www.w3.org/2000/svg"
                >
                  <path
                    fill-rule="#FFFFFF"
                    clip-rule="#FFFFFF"
                    d="M7.05421 0.672674C7.18323 0.901595 7.16574 1.18495 7.00954 1.39626C6.44006 2.1667 6.16603 3.11595 6.23727 4.07136C6.30852 5.02676 6.72032 5.92487 7.39777 6.60232C8.07522 7.27977 8.97332 7.69157 9.92873 7.76282C10.8841 7.83406 11.8334 7.56003 12.6038 6.99055C12.8151 6.83435 13.0985 6.81686 13.3274 6.94588C13.5563 7.07489 13.6881 7.32635 13.6639 7.58801C13.5474 8.8489 13.0742 10.0505 12.2997 11.0523C11.5251 12.0541 10.4813 12.8145 9.29038 13.2447C8.09943 13.6749 6.81059 13.757 5.57468 13.4814C4.33876 13.2058 3.20689 12.584 2.31151 11.6886C1.41613 10.7932 0.794261 9.66133 0.518681 8.42541C0.243102 7.1895 0.325206 5.90066 0.755387 4.70971C1.18557 3.51875 1.94603 2.47494 2.9478 1.70041C3.94956 0.925886 5.15119 0.452675 6.41208 0.336153C6.67374 0.311972 6.9252 0.443752 7.05421 0.672674ZM5.21102 1.95936C4.69261 2.14693 4.20383 2.41467 3.76335 2.75524C2.96194 3.37486 2.35357 4.20991 2.00942 5.16267C1.66528 6.11543 1.59959 7.1465 1.82006 8.13524C2.04052 9.12397 2.53801 10.0295 3.25432 10.7458C3.97063 11.4621 4.87612 11.9596 5.86485 12.18C6.85358 12.4005 7.88465 12.3348 8.83742 11.9907C9.79018 11.6465 10.6252 11.0382 11.2449 10.2367C11.5854 9.79626 11.8532 9.30748 12.0407 8.78907C11.3386 9.04307 10.5856 9.14883 9.82958 9.09246C8.5557 8.99746 7.35823 8.4484 6.45496 7.54513C5.55169 6.64186 5.00263 5.44439 4.90763 4.17051C4.85126 3.41453 4.95702 2.66145 5.21102 1.95936Z"
                    fill="#FFFFFF"
                  />
                </svg>